<?xml version="1.0" standalone="no"?>
<!DOCTYPE svg PUBLIC "-//W3C//DTD SVG 20010904//EN"
 "http://www.w3.org/TR/2001/REC-SVG-20010904/DTD/svg10.dtd">
<svg version="1.0" xmlns="http://www.w3.org/2000/svg"
 width="546.000000pt" height="457.000000pt" viewBox="0 0 546.000000 457.000000"
 preserveAspectRatio="xMidYMid meet">

<g transform="translate(0.000000,457.000000) scale(0.100000,-0.100000)"
fill="#000000" stroke="none">
<path d="M2497 3784 c-1 -2 -14 -5 -27 -8 -95 -19 -173 -62 -241 -133 -66 -68
-79 -89 -107 -166 -46 -123 -32 -281 35 -396 56 -97 181 -191 275 -207 l33 -6
-44 30 c-44 31 -113 107 -136 152 -21 40 -45 143 -45 191 0 102 50 219 125
294 57 58 123 92 207 108 53 10 59 13 67 42 5 18 7 44 6 59 -2 14 0 24 5 21 4
-3 10 2 14 10 4 13 -8 15 -79 13 -47 -1 -86 -3 -88 -4z"/>
<path d="M2733 3763 c9 -9 19 -14 23 -11 10 10 -6 28 -24 28 -15 0 -15 -1 1
-17z"/>
<path d="M2846 3729 c-32 -11 -69 -27 -82 -36 -23 -14 -26 -14 -44 2 -23 21
-21 24 -50 -89 -25 -99 -26 -119 -2 -112 9 2 61 7 114 11 91 6 97 8 88 25 -15
28 -14 28 47 46 109 32 246 0 359 -84 85 -63 171 -204 187 -311 12 -72 19 -40
14 59 -6 127 -35 211 -109 312 -119 163 -343 239 -522 177z"/>
<path d="M3095 3497 c70 -52 97 -83 131 -152 42 -85 52 -162 34 -257 -11 -59
-10 -69 9 -109 39 -86 51 -123 44 -130 -5 -4 -51 -9 -103 -12 -104 -5 -130
-12 -130 -34 0 -10 6 -12 23 -8 l22 7 -22 -21 c-24 -23 -38 -28 -27 -10 14 23
-19 27 -48 6 -16 -12 -43 -26 -60 -32 -25 -8 -35 -18 -43 -47 -15 -53 -28 -63
-50 -38 -10 11 -22 20 -27 20 -5 0 -39 -21 -75 -47 -193 -138 -236 -342 -112
-528 15 -22 38 -49 50 -60 13 -11 19 -13 12 -5 -19 25 -43 121 -43 170 0 82
25 144 87 210 50 55 163 131 243 166 148 64 241 122 291 181 13 16 42 63 63
106 36 71 40 84 44 179 5 119 -13 189 -74 283 -53 84 -190 185 -249 184 -17 0
-16 -3 10 -22z m-35 -717 c0 -5 -5 -10 -11 -10 -5 0 -7 5 -4 10 3 6 8 10 11
10 2 0 4 -4 4 -10z"/>
<path d="M2555 3458 c-3 -7 -4 -26 -2 -43 l2 -30 -103 -3 -103 -3 3 -27 3 -27
158 -3 c173 -3 173 -3 140 -65 -24 -48 -55 -87 -68 -87 -6 0 -27 21 -45 48
-18 26 -35 49 -36 50 -1 2 -12 1 -23 -3 -30 -9 -25 -33 19 -95 38 -51 39 -56
23 -69 -16 -12 -83 -44 -141 -67 -21 -8 -21 -10 -7 -31 9 -13 24 -23 34 -23
20 0 126 53 151 75 22 20 23 20 83 -20 48 -32 53 -34 65 -18 19 27 15 40 -23
62 -47 27 -52 45 -23 80 14 16 37 58 53 94 26 62 29 66 64 69 31 3 36 7 39 31
l3 27 -100 0 c-74 0 -101 3 -102 13 0 6 -2 26 -2 42 -2 25 -7 31 -30 33 -16 2
-29 -2 -32 -10z"/>
<path d="M2921 3394 c-12 -25 -21 -50 -21 -54 0 -4 -25 -68 -56 -141 -30 -74
-65 -159 -76 -189 -11 -30 -24 -59 -29 -64 -5 -6 -9 -18 -9 -29 0 -15 6 -18
37 -15 36 3 39 6 65 68 l27 65 120 3 121 3 25 -57 c14 -31 25 -63 25 -70 0
-10 13 -14 44 -14 l44 0 -29 78 c-16 42 -36 91 -43 107 -8 17 -43 102 -78 190
l-63 160 -42 3 c-41 3 -42 2 -62 -44z m87 -111 c11 -27 25 -66 32 -88 7 -22
16 -44 21 -49 5 -6 9 -18 9 -28 0 -16 -10 -18 -90 -18 -58 0 -90 4 -90 11 0
20 81 219 90 219 4 0 17 -21 28 -47z"/>
<path d="M2030 3183 c0 -138 42 -252 132 -364 64 -80 176 -147 285 -169 116
-24 267 9 361 79 28 20 37 23 52 13 24 -15 24 -15 49 92 16 68 19 92 10 100
-9 8 -10 7 -6 -6 4 -11 2 -15 -7 -12 -7 3 -21 -7 -32 -22 -31 -43 -44 -54 -64
-54 -10 0 -21 -4 -25 -10 -3 -5 -20 -19 -37 -32 -25 -17 -30 -18 -25 -5 4 11
2 14 -7 11 -7 -3 -20 1 -27 8 -17 16 -29 16 -97 -1 -129 -32 -291 22 -405 135
-55 55 -120 177 -137 259 -6 30 -13 55 -16 55 -2 0 -4 -35 -4 -77z m617 -429
c-3 -3 -12 -4 -19 -1 -8 3 -5 6 6 6 11 1 17 -2 13 -5z"/>
<path d="M2351 2523 c-41 -28 -22 -73 35 -82 l39 -6 3 -184 c1 -101 -2 -209
-8 -240 -9 -51 -69 -183 -110 -241 -9 -14 -33 -54 -52 -90 -32 -61 -74 -135
-174 -310 -23 -41 -56 -100 -74 -130 -67 -118 -94 -184 -98 -241 -8 -111 50
-213 152 -267 l51 -27 635 0 635 0 57 28 c61 30 96 65 130 131 30 58 29 172
-2 241 -22 48 -145 268 -216 387 -19 31 -34 59 -34 62 0 3 -22 43 -48 88 -54
92 -112 197 -151 273 -25 49 -26 55 -29 287 l-3 238 30 0 c48 0 76 41 52 78
-9 15 -32 17 -123 14 l-58 -2 0 -237 c0 -277 8 -340 48 -420 34 -68 185 -337
199 -355 6 -7 23 -38 39 -68 15 -30 37 -68 48 -85 11 -16 38 -63 60 -105 21
-41 46 -86 55 -100 10 -14 30 -54 45 -89 23 -52 27 -72 22 -110 -8 -58 -49
-118 -99 -144 -36 -18 -62 -19 -652 -18 -677 1 -654 -2 -712 64 -35 39 -48 95
-38 156 3 21 40 98 81 171 41 73 74 136 74 140 0 4 9 19 20 33 11 14 41 65 66
114 26 48 55 99 64 113 37 54 162 284 183 338 21 54 22 72 22 332 l0 275 -72
1 c-48 1 -78 -3 -92 -13z"/>
<path d="M2947 1544 c-4 -4 -21 -8 -38 -9 -34 -3 -141 -56 -147 -73 -4 -14 66
-58 140 -89 74 -30 154 -31 209 -3 47 25 66 58 50 88 -14 27 -14 35 2 26 6 -4
4 2 -7 14 -16 19 -36 22 -36 6 0 -3 4 -3 9 1 5 3 12 1 15 -4 16 -26 -85 -22
-152 6 -23 9 -32 19 -28 29 5 14 -5 19 -17 8z"/>
<path d="M2295 1400 c2 -11 0 -18 -4 -15 -10 6 -35 -29 -46 -64 -4 -13 -22
-45 -40 -70 -53 -74 -135 -237 -135 -268 0 -15 9 -43 20 -61 38 -63 30 -62
665 -62 635 0 627 -1 665 62 35 58 29 85 -59 238 -24 41 -58 100 -75 131 -17
31 -38 67 -48 80 l-16 24 -26 -55 c-14 -30 -26 -50 -27 -45 0 6 -4 1 -9 -10
-7 -16 -9 -16 -9 -4 -1 14 -7 16 -38 8 -78 -18 -224 -5 -260 23 -7 5 -18 6
-24 2 -7 -4 -9 -3 -6 2 3 6 -3 16 -15 23 -15 9 -18 9 -13 0 5 -7 3 -10 -6 -7
-8 3 -13 10 -12 16 2 6 -4 9 -12 6 -8 -4 -15 -2 -15 2 -1 16 -25 41 -46 48
-14 4 -28 0 -41 -11 -10 -10 -14 -15 -7 -10 13 8 44 -1 44 -13 0 -13 -39 -19
-77 -13 -24 4 -34 3 -30 -4 4 -6 -1 -14 -10 -18 -10 -3 -19 -2 -21 3 -2 6 -12
7 -24 4 -13 -3 -26 1 -34 12 -12 16 -14 17 -38 1 -22 -14 -31 -15 -63 -4 -21
6 -44 18 -52 26 -7 8 -20 12 -27 9 -8 -3 -14 1 -14 9 0 7 -4 16 -9 20 -6 3 -8
-4 -6 -15z m435 -25 c7 -9 8 -15 2 -15 -5 0 -12 7 -16 15 -3 8 -4 15 -2 15 2
0 9 -7 16 -15z m25 -45 c3 -5 1 -10 -4 -10 -6 0 -11 5 -11 10 0 6 2 10 4 10 3
0 8 -4 11 -10z m155 -235 c23 -8 53 -15 66 -15 43 0 24 -22 -56 -64 -52 -28
-84 -35 -86 -21 0 6 -4 18 -8 27 -8 17 20 88 34 88 4 0 27 -7 50 -15z"/>
</g>
</svg>
